<svg width="16" height="24" viewBox="0 0 8 16" fill="none" xmlns="http://www.w3.org/2000/svg">
    <path d="M6.57435 0.774984C6.73268 0.774984 6.89102 0.833317 7.01602 0.958317C7.25768 1.19998 7.25768 1.59998 7.01602 1.84165L1.58268 7.27498C1.18268 7.67498 1.18268 8.32498 1.58268 8.72498L7.01602 14.1583C7.25768 14.4 7.25768 14.8 7.01602 15.0417C6.77435 15.2833 6.37435 15.2833 6.13268 15.0417L0.699349 9.60832C0.274349 9.18332 0.0326826 8.60832 0.0326826 7.99998C0.0326826 7.39165 0.266016 6.81665 0.699349 6.39165L6.13268 0.958317C6.25768 0.84165 6.41602 0.774984 6.57435 0.774984Z"
          fill="#F9F9F9"/>
</svg>
