<svg width="20" height="22" viewBox="1 0 16 20" fill="none" xmlns="http://www.w3.org/2000/svg">
    <path d="M8.99996 2.64999C4.21996 2.64999 0.329956 6.53999 0.329956 11.32C0.329956 16.1 4.21996 20 8.99996 20C13.78 20 17.67 16.11 17.67 11.33C17.67 6.54999 13.78 2.64999 8.99996 2.64999ZM9.74996 11C9.74996 11.41 9.40996 11.75 8.99996 11.75C8.58996 11.75 8.24996 11.41 8.24996 11V5.99999C8.24996 5.58999 8.58996 5.24999 8.99996 5.24999C9.40996 5.24999 9.74996 5.58999 9.74996 5.99999V11Z" fill="#B43FEB"/>
    <path d="M11.89 1.45H6.11001C5.71001 1.45 5.39001 1.13 5.39001 0.73C5.39001 0.33 5.71001 0 6.11001 0H11.89C12.29 0 12.61 0.32 12.61 0.72C12.61 1.12 12.29 1.45 11.89 1.45Z" fill="#B43FEB"/>
</svg>
