    <svg width="22" height="22" viewBox="0 0 22 22" fill="none" xmlns="http://www.w3.org/2000/svg">
    <path d="M3.90999 21.82C2.81999 21.82 1.88999 21.47 1.20999 20.79C0.239994 19.82 -0.0600061 18.34 0.369994 16.62L2.84999 6.69001C3.27999 4.97001 4.95999 3.30001 6.66999 2.87001L16.6 0.390013C18.32 -0.0399866 19.8 0.260013 20.77 1.23001C21.74 2.20001 22.04 3.68001 21.61 5.40001L19.13 15.33C18.7 17.05 17.02 18.72 15.31 19.15L5.37999 21.63C4.86999 21.75 4.37999 21.82 3.90999 21.82ZM16.98 1.83001L7.04999 4.32001C5.87999 4.61001 4.60999 5.88001 4.30999 7.05001L1.82999 16.98C1.52999 18.17 1.68999 19.14 2.26999 19.73C2.84999 20.31 3.82999 20.47 5.01999 20.17L14.95 17.69C16.12 17.4 17.39 16.12 17.68 14.96L20.16 5.03001C20.46 3.84001 20.3 2.87001 19.72 2.28001C19.14 1.69001 18.17 1.54001 16.98 1.83001Z" fill="#78828A"/>
    <path d="M11 15.25C8.66 15.25 6.75 13.34 6.75 11C6.75 8.66 8.66 6.75 11 6.75C13.34 6.75 15.25 8.66 15.25 11C15.25 13.34 13.34 15.25 11 15.25ZM11 8.25C9.48 8.25 8.25 9.48 8.25 11C8.25 12.52 9.48 13.75 11 13.75C12.52 13.75 13.75 12.52 13.75 11C13.75 9.48 12.52 8.25 11 8.25Z" fill="#78828A"/>
    </svg>
