<svg   xmlns="http://www.w3.org/2000/svg" xmlns:xlink="http://www.w3.org/1999/xlink"  viewBox="0 0 588.44 588.44">
    <defs>
        <style>.cls-1{fill:#fff;}</style>
    </defs>
    <circle cx="294.22" cy="294.22" r="294.22"/>
    <path class="cls-1"
          d="M310.43,357.1a8.34,8.34,0,0,1,.42-1.51c20.25-15.29,22.48-35.16,14.86-57.68-6.59-19.44-17.95-36-31-51.48a8.4,8.4,0,0,0-1.57-1.08c-16.16,21.34-32.91,42.08-35.08,70.4-1.12,14.68,3.25,26.87,14.2,36.7a4.9,4.9,0,0,1,1.67,2.88c-3.1-1.52-6.26-2.94-9.3-4.58-22.22-12-41.41-27.32-54-49.74-13.31-23.63-16-49.11-12.73-75.52,3.77-30.75,15.52-58.8,29.7-86,17-32.48,38.18-62.11,61.78-90.07,1.38-1.64,2.73-3.31,4.53-5.48,5.24,6.6,9.88,12.43,14.5,18.27,25.41,32.12,48.27,65.85,64.07,103.87,11.21,27,19.35,54.71,18.14,84.34-1.55,38.19-19.07,67.7-49.9,89.51-8.12,5.75-17.12,10.25-25.76,15.27A39.8,39.8,0,0,1,310.43,357.1Z"/>
    <path class="cls-1"
          d="M337.55,484.12c-.68-3.59-.87-6.29-1.72-8.76-1.16-3.42-2.12-7.33-4.47-9.8a11.31,11.31,0,0,0-8.72-3c-2.39.41-5.39,3.5-6.16,6-1.69,5.51-2.34,11.38-3.06,17.15-1,8-3.32,15.37-9.05,21.2-7.86,8-17.41,10.24-28,6.68-11.74-3.95-17.14-13.15-18.92-24.78-.7-4.59-.12-9.42-1.15-13.91-1.09-4.76-2.73-9.69-5.44-13.65-1.45-2.11-5.94-3.57-8.56-3-2.27.48-4.51,4-5.57,6.6-1.13,2.83-.68,6.25-1.28,9.35-1.05,5.47-4.33,8.48-9.34,8.88-5.17.41-8.64-2-10.5-6.73-1.36-3.39-2.3-6.95-3.69-10.33-1.56-3.81-4.27-6.5-8.7-6.24-4.73.27-7.72,3.14-8.78,7.59a101.4,101.4,0,0,0-1.74,11.82c-.33,2.82-.05,6.12-4.05,6.27-4.17.16-5.32-2.88-5.42-6.33-.36-12.32-.6-24.64-.92-37-.18-6.65-.68-13.31-.56-20,.16-8.78.68-17.56,1.26-26.33.29-4.51,2.55-7.37,7.12-9.11a159.64,159.64,0,0,1,44.1-10.37c22.89-1.78,45.92-4.66,68.73-3.61,25.33,1.16,50.56,5.76,75.7,9.72,14.06,2.21,19.42,9.46,18.65,23.79-1,19.28-3.42,38.51-4.13,57.79-.71,19.43-.08,38.91,0,58.37,0,.66.14,1.33.14,2,0,2.79-.13,5.6-3.71,6-3.37.4-4.84-1.81-5.25-4.74a103,103,0,0,1-1.52-13.39c-.12-15.31.18-30.63.09-45.95a63.19,63.19,0,0,0-1.37-12.86c-1.25-5.74-5.12-9.24-11-10.14-6.23-1-11.24,1.15-14.37,6.71a46.52,46.52,0,0,0-3.44,8.27C349.65,467.6,344.8,475.81,337.55,484.12Zm-128.5-79.86C261,413.17,313,413,365,405.05,313,409.74,261,409.86,209.05,404.26Z"/>
    <path d="M209.05,404.26c52,5.6,104,5.48,156,.79C313,413,261,413.17,209.05,404.26Z"/>
</svg>